<?xml version="1.0" encoding="UTF-8" standalone="no"?>
<!-- Created with Inkscape (http://www.inkscape.org/) -->

<svg
   xmlns:dc="http://purl.org/dc/elements/1.1/"
   xmlns:cc="http://creativecommons.org/ns#"
   xmlns:rdf="http://www.w3.org/1999/02/22-rdf-syntax-ns#"
   xmlns:svg="http://www.w3.org/2000/svg"
   xmlns="http://www.w3.org/2000/svg"
   xmlns:sodipodi="http://sodipodi.sourceforge.net/DTD/sodipodi-0.dtd"
   xmlns:inkscape="http://www.inkscape.org/namespaces/inkscape"
   width="1000"
   height="264.00668"
   viewBox="0 0 264.58333 69.85177"
   version="1.1"
   id="svg8"
   inkscape:version="0.92.4 (5da689c313, 2019-01-14)"
   sodipodi:docname="A.svg">
  <defs
     id="defs2" />
  <sodipodi:namedview
     id="base"
     pagecolor="#ffffff"
     bordercolor="#666666"
     borderopacity="1.0"
     inkscape:pageopacity="0.0"
     inkscape:pageshadow="2"
     inkscape:zoom="0.35"
     inkscape:cx="1298.5785"
     inkscape:cy="-78.180264"
     inkscape:document-units="px"
     inkscape:current-layer="layer1"
     showgrid="false"
     units="px"
     inkscape:window-width="1920"
     inkscape:window-height="1017"
     inkscape:window-x="1912"
     inkscape:window-y="-8"
     inkscape:window-maximized="1"
     fit-margin-top="0"
     fit-margin-left="0"
     fit-margin-right="0"
     fit-margin-bottom="0" />
  <metadata
     id="metadata5">
    <rdf:RDF>
      <cc:Work
         rdf:about="">
        <dc:format>image/svg+xml</dc:format>
        <dc:type
           rdf:resource="http://purl.org/dc/dcmitype/StillImage" />
        <dc:title></dc:title>
      </cc:Work>
    </rdf:RDF>
  </metadata>
  <g
     inkscape:label="Layer 1"
     inkscape:groupmode="layer"
     id="layer1"
     transform="translate(166.68937,181.34054)">
    <g
       id="g1082"
       transform="matrix(1.6912852,0,0,-1.6912852,-40.263077,-146.163)"
       style="fill:#000000;stroke:none">
      <path
         d="m 0,0 c -3.005,-0.057 -4.083,-0.616 -4.548,-2.263 -0.072,-0.254 -0.115,-0.48 -0.129,-0.677 -0.023,-0.319 0.034,-0.553 0.157,-0.706 0.2,-0.249 0.654,-0.377 1.466,-0.377 1.443,0 2.932,0.686 3.431,0.937 L 1.253,0.018 Z M 6.777,6.888 C 7.475,6.022 7.585,4.815 7.132,3.215 L 4.234,-7.036 h -4.267 l -0.027,1.087 c -0.938,-0.551 -2.683,-1.356 -4.95,-1.356 -1.96,0 -3.351,0.473 -4.115,1.42 -0.489,0.609 -0.699,1.39 -0.633,2.33 0.028,0.407 0.109,0.845 0.24,1.312 0.917,3.238 3.981,4.934 8.817,4.934 H 2.01 L 2.277,3.638 C 2.328,3.816 2.358,3.974 2.368,4.111 2.383,4.328 2.346,4.482 2.267,4.58 2.004,4.907 1.11,4.942 0.165,4.942 c -1.999,0 -4.944,-0.617 -5.516,-0.741 l -0.747,-0.161 0.982,3.476 0.297,0.073 c 0.13,0.034 3.22,0.796 6.426,0.796 1.829,0 4.098,-0.166 5.17,-1.497"
         style="fill:#000000;fill-opacity:1;fill-rule:nonzero;stroke:none"
         id="path1084"
         inkscape:connector-curvature="0" />
    </g>
    <g
       id="g1086"
       transform="matrix(1.6912852,0,0,-1.6912852,-6.1823478,-147.366)"
       style="fill:#000000;stroke:none">
      <path
         d="m 0,0 c 0.582,2.055 0.618,3.311 0.158,3.883 -0.335,0.416 -0.981,0.508 -1.886,0.508 -1.389,0 -2.937,-0.606 -3.484,-0.878 l -2.255,-7.974 c 0.567,-0.136 1.564,-0.327 2.529,-0.327 1.767,0 3.741,0.555 4.938,4.788 m 4.53,5.995 c 1.057,-1.312 1.18,-3.396 0.394,-6.177 -1.429,-5.05 -5.115,-7.834 -10.37,-7.834 -1.145,0 -2.233,0.24 -2.898,0.45 l -1.495,-5.285 h -4.975 l 5.729,20.256 h 3.861 l 0.181,-1.074 c 0.931,0.557 2.61,1.342 4.711,1.342 1.496,0 3.648,-0.17 4.862,-1.678"
         style="fill:#000000;fill-opacity:1;fill-rule:nonzero;stroke:none"
         id="path1088"
         inkscape:connector-curvature="0" />
    </g>
    <g
       id="g1090"
       transform="matrix(1.6912852,0,0,-1.6912852,56.74294,-149.57958)"
       style="fill:#000000;stroke:none">
      <path
         d="M 0,0 H 5.561 C 5.689,0.526 5.778,1.001 5.806,1.393 5.853,2.065 5.752,2.533 5.517,2.822 5.257,3.141 4.792,3.297 4.03,3.297 2.028,3.297 0.805,2.302 0,0 M 9.711,4.536 C 10.376,3.681 10.657,2.543 10.56,1.142 10.503,0.322 10.315,-0.588 10,-1.585 L 9.572,-2.933 H -0.877 c -0.054,-0.251 -0.095,-0.49 -0.111,-0.707 -0.045,-0.642 0.078,-1.135 0.359,-1.481 0.545,-0.67 1.644,-0.761 2.566,-0.761 1.025,0 2.341,0.177 3.405,0.354 1.064,0.177 1.876,0.355 1.893,0.359 L 7.985,-5.004 6.987,-8.534 6.694,-8.61 C 6.637,-8.624 5.934,-8.803 4.906,-8.978 3.876,-9.154 2.522,-9.325 1.159,-9.325 c -2.094,0 -4.705,0.216 -6.095,1.942 -1.064,1.322 -1.214,3.344 -0.465,5.994 1.908,6.745 7.154,7.753 10.103,7.753 2.37,0 4.061,-0.61 5.009,-1.828"
         style="fill:#000000;fill-opacity:1;fill-rule:nonzero;stroke:none"
         id="path1092"
         inkscape:connector-curvature="0" />
    </g>
    <g
       id="g1094"
       transform="matrix(1.6912852,0,0,-1.6912852,-57.327965,-157.98749)"
       style="fill:#000000;stroke:none">
      <path
         d="m 0,0 c 0.65,-0.808 0.757,-1.98 0.337,-3.468 l -3.006,-10.627 h -4.974 l 3.041,10.755 c 0.113,0.397 0.096,0.657 -0.017,0.798 -0.219,0.272 -0.922,0.317 -1.624,0.317 -1.835,0 -3.91,-0.817 -4.557,-1.092 l -3.048,-10.778 h -4.975 l 4.285,15.151 h 3.975 l 0.199,-1.38 C -9.228,0.239 -6.7,1.325 -4.107,1.325 -2.074,1.325 -0.723,0.898 0,0"
         style="fill:#000000;fill-opacity:1;fill-rule:nonzero;stroke:none"
         id="path1096"
         inkscape:connector-curvature="0" />
    </g>
    <g
       id="g1098"
       transform="matrix(1.6912852,0,0,-1.6912852,27.043146,-159.25561)"
       style="fill:#000000;stroke:none">
      <path
         d="m 0,0 0.393,-0.13 -0.936,-3.312 -0.487,0.119 c -0.013,0.003 -0.608,0.147 -1.405,0.291 -0.796,0.143 -1.792,0.286 -2.607,0.286 -2.311,0 -2.753,-0.64 -2.901,-1.162 -0.179,-0.635 0.252,-0.859 1.46,-1.241 l 0.18,-0.058 1.641,-0.511 c 0.237,-0.076 0.595,-0.191 0.984,-0.372 0.39,-0.181 0.813,-0.43 1.178,-0.775 0.732,-0.691 1.223,-1.765 0.751,-3.435 -1.206,-4.263 -5.503,-4.746 -8.588,-4.746 -2.172,0 -4.501,0.608 -4.599,0.634 l -0.43,0.113 0.982,3.475 0.489,-0.122 c 0.013,-0.003 0.706,-0.175 1.568,-0.344 0.864,-0.171 1.894,-0.34 2.586,-0.34 2.037,0 2.891,0.394 3.163,1.349 0.203,0.719 -0.156,0.918 -1.538,1.383 l -1.582,0.539 c -0.266,0.092 -0.642,0.222 -1.044,0.413 -0.403,0.191 -0.831,0.444 -1.201,0.784 -0.741,0.68 -1.238,1.704 -0.801,3.246 0.822,2.909 3.834,4.56 8.22,4.56 C -1.957,0.644 -0.081,0.028 0,0"
         style="fill:#000000;fill-opacity:1;fill-rule:nonzero;stroke:none"
         id="path1100"
         inkscape:connector-curvature="0" />
    </g>
    <g
       id="g1102"
       transform="matrix(1.6912852,0,0,-1.6912852,97.893956,-159.90081)"
       style="fill:#000000;stroke:none">
      <path
         d="m 0,0 -1.13,-3.995 -0.476,0.099 c -0.013,0.003 -1.251,0.258 -2.336,0.258 -1.151,0 -2.092,-0.457 -2.442,-0.653 l -3.074,-10.868 h -4.974 l 4.284,15.152 h 3.985 l 0.034,-1.08 c 0.783,0.607 2.093,1.349 3.828,1.349 0.945,0 1.797,-0.164 1.831,-0.17 z"
         style="fill:#000000;fill-opacity:1;fill-rule:nonzero;stroke:none"
         id="path1104"
         inkscape:connector-curvature="0" />
    </g>
    <g
       id="g1106"
       transform="matrix(1.6912852,0,0,-1.6912852,43.17259,-159.88949)"
       style="fill:#000000;stroke:none">
      <path
         d="M 0,0 H 4.306 L 2.835,-3.094 h -3.71 l -2.341,-8.279 c -0.038,-0.135 -0.056,-0.238 -0.062,-0.316 -0.008,-0.139 0.021,-0.187 0.03,-0.197 0.039,-0.049 0.171,-0.084 0.344,-0.101 0.163,-0.018 0.333,-0.018 0.418,-0.018 0.457,0 1.262,0.118 1.956,0.235 0.695,0.117 1.278,0.236 1.29,0.238 l 0.738,0.151 -0.963,-3.411 -0.296,-0.076 c -0.089,-0.022 -2.198,-0.553 -4.369,-0.553 -1.184,0 -2.885,0.115 -3.721,1.151 -0.393,0.49 -0.56,1.118 -0.505,1.897 0.026,0.368 0.099,0.769 0.224,1.208 l 2.282,8.071 H -8.506 L -7.632,0 h 2.684 c 0.172,0.463 0.732,1.833 0.971,3.009 L 0.973,3.954 0.957,3.876 C 0.599,2.143 0.156,0.554 0,0"
         style="fill:#000000;fill-opacity:1;fill-rule:nonzero;stroke:none"
         id="path1108"
         inkscape:connector-curvature="0" />
    </g>
    <g
       id="g1110"
       transform="matrix(1.6912852,0,0,-1.6912852,-122.3895,-130.57966)"
       style="fill:#000000;stroke:none">
      <path
         d="M 0,0 C -1.244,-1.195 -2.75,-2.119 -4.422,-2.68 -6.094,-2.119 -7.6,-1.195 -8.843,0 Z"
         style="fill:#000000;fill-opacity:1;fill-rule:nonzero;stroke:none"
         id="path1112"
         inkscape:connector-curvature="0" />
    </g>
    <g
       id="g1114"
       transform="matrix(1.6912852,0,0,-1.6912852,-152.66862,-171.13533)"
       style="fill:#000000;stroke:none">
      <path
         d="m 0,0 c 3.319,3.707 8.14,6.034 13.508,6.034 5.364,0 10.178,-2.322 13.497,-6.024 1.411,0.379 2.881,0.6 4.399,0.646 V -5.42 c 2.318,-1.443 3.861,-4.015 3.861,-6.946 0,-2.938 -1.549,-5.513 -3.876,-6.953 l -0.025,-0.152 c -0.969,-8.943 -8.667,-15.796 -17.934,-15.796 -9.269,0 -16.896,6.976 -17.859,15.927 -2.32,1.475 -3.861,4.044 -3.861,6.974 0,2.926 1.538,5.493 3.85,6.937 V 0.658 C -2.902,0.613 -1.427,0.384 0,0 m 5.228,-2.3 c 2.47,1.285 5.277,2.01 8.254,2.01 2.973,0 5.776,-0.724 8.245,-2.005 0.581,0.368 1.184,0.705 1.805,1.011 C 20.898,1.163 17.369,2.66 13.49,2.66 9.603,2.66 6.067,1.157 3.431,-1.299 4.001,-1.581 4.676,-1.956 5.228,-2.3 M 5.191,-6.446 c -1.75,1.477 -3.83,2.589 -6.107,3.198 l -0.002,-13.65 v -0.554 c 0,-7.963 6.426,-14.31 14.407,-14.31 7.981,0 14.395,6.375 14.395,14.338 v 0.688 l 0.002,13.474 c -2.283,-0.612 -4.36,-1.696 -6.113,-3.181 -2.344,1.653 -5.203,2.624 -8.289,2.624 -3.089,0 -5.948,-0.973 -8.293,-2.627"
         style="fill:#000000;fill-opacity:1;fill-rule:nonzero;stroke:none"
         id="path1116"
         inkscape:connector-curvature="0" />
    </g>
    <g
       id="g1118"
       transform="matrix(1.6912852,0,0,-1.6912852,-122.29126,-141.5984)"
       style="fill:#000000;stroke:none">
      <path
         d="M 0,0 C 2.401,0.273 6.431,0.241 6.431,0.241 6.364,-0.477 6.441,-2.598 4.129,-3.923 3.746,-4.143 2.791,-4.452 1.892,-4.495 -0.327,-4.595 -3.491,-4.623 -3.491,-4.623 -2.933,-2.105 -2.006,-0.228 0,0"
         style="fill:#000000;fill-opacity:1;fill-rule:nonzero;stroke:none"
         id="path1120"
         inkscape:connector-curvature="0" />
    </g>
    <g
       id="g1122"
       transform="matrix(1.6912852,0,0,-1.6912852,-137.44451,-141.5984)"
       style="fill:#000000;stroke:none">
      <path
         d="m 0,0 c 2.005,-0.228 2.932,-2.105 3.491,-4.623 0,0 -3.164,0.028 -5.383,0.128 -0.9,0.043 -1.854,0.352 -2.238,0.572 -2.312,1.325 -2.234,3.446 -2.301,4.164 0,0 4.03,0.032 6.431,-0.241"
         style="fill:#000000;fill-opacity:1;fill-rule:nonzero;stroke:none"
         id="path1124"
         inkscape:connector-curvature="0" />
    </g>
    <g
       id="g1126"
       transform="matrix(1.6912852,0,0,-1.6912852,-122.71934,-122.35345)"
       style="fill:#000000;stroke:none">
      <path
         d="m 0,0 c -1.21,-0.732 -2.662,-1.158 -4.224,-1.158 -1.562,0 -3.014,0.426 -4.225,1.158 0,0 0.079,0.476 0.328,0.841 0.304,0.446 0.563,0.575 0.563,0.575 1.032,-0.301 2.157,-0.466 3.334,-0.466 1.177,0 2.302,0.165 3.333,0.466 0,0 0.319,-0.172 0.604,-0.639 C -0.025,0.347 0,0 0,0"
         style="fill:#000000;fill-opacity:1;fill-rule:nonzero;stroke:none"
         id="path1128"
         inkscape:connector-curvature="0" />
    </g>
  </g>
</svg>
